<?xml version="1.0" encoding="UTF-8" standalone="no"?>
<!-- Created with Inkscape (http://www.inkscape.org/) -->

<svg
   width="30"
   height="29.849939"
   viewBox="0 0 7.9374998 7.8977967"
   version="1.1"
   id="svg5"
   inkscape:version="1.3 (0e150ed6c4, 2023-07-21)"
   sodipodi:docname="facebook.svg"
   xml:space="preserve"
   inkscape:export-filename="02.png"
   inkscape:export-xdpi="96"
   inkscape:export-ydpi="96"
   xmlns:inkscape="http://www.inkscape.org/namespaces/inkscape"
   xmlns:sodipodi="http://sodipodi.sourceforge.net/DTD/sodipodi-0.dtd"
   xmlns="http://www.w3.org/2000/svg"
   xmlns:svg="http://www.w3.org/2000/svg"><sodipodi:namedview
     id="namedview7"
     pagecolor="#3a3a3a"
     bordercolor="#000000"
     borderopacity="0.25"
     inkscape:showpageshadow="2"
     inkscape:pageopacity="0"
     inkscape:pagecheckerboard="0"
     inkscape:deskcolor="#4f4f4f"
     inkscape:document-units="px"
     showgrid="false"
     showborder="false"
     inkscape:zoom="13.365385"
     inkscape:cx="14.215827"
     inkscape:cy="6.6215825"
     inkscape:window-width="1920"
     inkscape:window-height="1057"
     inkscape:window-x="1358"
     inkscape:window-y="815"
     inkscape:window-maximized="1"
     inkscape:current-layer="layer1"
     showguides="true" /><defs
     id="defs2" /><g
     inkscape:label="Capa 1"
     inkscape:groupmode="layer"
     id="layer1"
     transform="translate(187.04366,-509.6324)"><g
       id="g23585-7-9-5"
       transform="matrix(0.19843584,0,0,0.19843584,-187.04362,509.63244)"
       style="fill:#ffffff;fill-opacity:1;stroke-width:1.33335"><path
         id="path23573-6-7-7"
         style="fill:#ffffff;fill-opacity:1;stroke-width:1.33335"
         d="M 19.999351,-2.0618405e-4 C 8.9993621,-2.0618405e-4 -1.3434202e-4,9.0005981 -1.3434202e-4,20.000587 -1.3434202e-4,29.899696 7.1981039,38.098956 16.69684,39.79996 V 25.599815 h -5.000199 v -5.599228 h 5.000199 v -4.401168 c 0,-4.999995 3.199163,-7.7991588 7.799158,-7.7991588 1.399999,0 2.999862,0.2002253 4.399861,0.4002251 v 5.0996007 h -2.598848 c -2.399997,0 -3.00038,1.20027 -3.00038,2.800268 v 3.900233 h 5.299713 l -0.899853,5.599228 h -4.39986 v 14.197529 l 0.0039,0.0026 c 9.499991,-1.699998 16.69959,-9.899383 16.69959,-19.799373 0,-10.9999889 -9.000804,-20.00079318405 -20.000793,-20.00079318405 z" /></g></g></svg>
