<?xml version="1.0" encoding="UTF-8" standalone="no"?>
<!-- Created with Inkscape (http://www.inkscape.org/) -->

<svg
   width="29.999943"
   height="22.505535"
   viewBox="0 0 7.9374847 5.9545897"
   version="1.1"
   id="svg5"
   inkscape:version="1.3 (0e150ed6c4, 2023-07-21)"
   sodipodi:docname="gmail.svg"
   xml:space="preserve"
   inkscape:export-filename="02.png"
   inkscape:export-xdpi="96"
   inkscape:export-ydpi="96"
   xmlns:inkscape="http://www.inkscape.org/namespaces/inkscape"
   xmlns:sodipodi="http://sodipodi.sourceforge.net/DTD/sodipodi-0.dtd"
   xmlns="http://www.w3.org/2000/svg"
   xmlns:svg="http://www.w3.org/2000/svg"><sodipodi:namedview
     id="namedview7"
     pagecolor="#3a3a3a"
     bordercolor="#000000"
     borderopacity="0.25"
     inkscape:showpageshadow="2"
     inkscape:pageopacity="0"
     inkscape:pagecheckerboard="0"
     inkscape:deskcolor="#4f4f4f"
     inkscape:document-units="px"
     showgrid="false"
     showborder="false"
     inkscape:zoom="13.365385"
     inkscape:cx="30.825898"
     inkscape:cy="26.3741"
     inkscape:window-width="1920"
     inkscape:window-height="1057"
     inkscape:window-x="1358"
     inkscape:window-y="815"
     inkscape:window-maximized="1"
     inkscape:current-layer="layer1"
     showguides="true" /><defs
     id="defs2" /><g
     inkscape:label="Capa 1"
     inkscape:groupmode="layer"
     id="layer1"
     transform="translate(187.04363,-497.33928)"><g
       id="g23608-9-0-95"
       transform="matrix(0.09019811,0,0,0.09019811,-191.73386,493.55249)"
       style="fill:#ffffff;fill-opacity:1;stroke-width:2.93336"><path
         id="path23587-2-5-27"
         style="fill:#ffffff;fill-opacity:1;stroke-width:2.58133"
         d="m 61.034189,41.982881 c -4.663939,-0.0013 -9.035148,3.684763 -9.035148,9.017883 v 3.311928 4.687343 43.000395 c 0,3.32 2.692334,5.99946 6.002331,5.99946 H 72.000096 V 74.000106 L 96.000786,92.001343 119.9986,74.000106 v 33.999784 h 14.0016 c 3.32,0 5.99945,-2.68946 5.99945,-5.99946 V 59.000035 51.000764 c 0,-7.419993 -8.46869,-11.64934 -14.39868,-7.199344 l -5.60237,4.198179 v 0.0029 l -2.62998,1.97102 L 96.000786,66.000836 71.628907,47.720487 66.400606,43.80142 c -1.670623,-1.251561 -3.541398,-1.818042 -5.366417,-1.818539 z" /></g></g></svg>
