<?xml version="1.0" encoding="UTF-8" standalone="no"?>
<!-- Created with Inkscape (http://www.inkscape.org/) -->

<svg
   width="30"
   height="29.999769"
   viewBox="0 0 7.9374998 7.9374391"
   version="1.1"
   id="svg5"
   inkscape:version="1.3 (0e150ed6c4, 2023-07-21)"
   sodipodi:docname="instagram.svg"
   xml:space="preserve"
   inkscape:export-filename="02.png"
   inkscape:export-xdpi="96"
   inkscape:export-ydpi="96"
   xmlns:inkscape="http://www.inkscape.org/namespaces/inkscape"
   xmlns:sodipodi="http://sodipodi.sourceforge.net/DTD/sodipodi-0.dtd"
   xmlns="http://www.w3.org/2000/svg"
   xmlns:svg="http://www.w3.org/2000/svg"><sodipodi:namedview
     id="namedview7"
     pagecolor="#3a3a3a"
     bordercolor="#000000"
     borderopacity="0.25"
     inkscape:showpageshadow="2"
     inkscape:pageopacity="0"
     inkscape:pagecheckerboard="0"
     inkscape:deskcolor="#4f4f4f"
     inkscape:document-units="px"
     showgrid="false"
     showborder="false"
     inkscape:zoom="9.4507544"
     inkscape:cx="26.241291"
     inkscape:cy="15.289785"
     inkscape:window-width="1920"
     inkscape:window-height="1057"
     inkscape:window-x="1358"
     inkscape:window-y="815"
     inkscape:window-maximized="1"
     inkscape:current-layer="layer1"
     showguides="true" /><defs
     id="defs2" /><g
     inkscape:label="Capa 1"
     inkscape:groupmode="layer"
     id="layer1"
     transform="translate(187.04366,-522.87725)"><g
       inkscape:label="Layer 1"
       id="g23654-0-7-29"
       transform="matrix(0.02999975,0,0,0.02999975,-185.30256,523.46804)"
       style="fill:#ffffff;fill-opacity:1;stroke-width:33.3337"><path
         id="path23650-1-6-9"
         style="fill:#ffffff;fill-opacity:1;stroke-width:33.3337"
         d="m 74.294809,-19.693054 c -55.23044,0 -71.3831902,0.0596 -74.52299021,0.320101 -11.33418979,0.942399 -18.38280979,2.722599 -26.06661279,6.549093 -5.92139,2.9412997 -10.59147,6.3551297 -15.20047,11.1343297 -8.39379,8.71569 -13.47999,19.4372403 -15.32159,32.1831303 -0.8953,6.1877 -1.1583,7.44616 -1.2112,39.05233 -0.0203,10.53539 0,24.40833 0,43.00601 0,55.20075 0.0642,71.33649 0.32876,74.47108 0.9157,11.03199 2.64406,17.97264 6.30685,25.56483 7,14.53289 20.36953,25.44761 36.119513,29.51851 5.4534998,1.4044 11.4735698,2.17721 19.2060698,2.54351 3.27619,0.1425 36.6722602,0.24223 70.0848302,0.24223 33.412661,0 66.820921,-0.0448 70.015621,-0.20763 8.95349,-0.4214 14.14968,-1.11817 19.89817,-2.60406 15.85168,-4.0912 28.97722,-14.83394 36.11951,-29.57042 3.5916,-7.40899 5.41345,-14.61571 6.23765,-25.0717 0.179,-2.2796 0.25954,-38.62329 0.25954,-74.92095 0,-36.30397 -0.0804,-72.58935 -0.25954,-74.86905 C 205.45462,27.0234 203.629,19.8772 199.9215,12.3257 196.8794,6.1441097 193.50084,1.5337697 188.59684,-3.1862203 179.84485,-11.54781 169.14234,-16.641862 156.38776,-18.481861 c -6.18,-0.893599 -7.41306,-1.156293 -39.03503,-1.211193 z m -0.0173,33.973974 h 0.02595 c 26.677891,1.4e-4 30.045141,0.12005 40.531721,0.59694 10.47269,0.4792 17.62372,2.13703 23.89511,4.56793 6.47619,2.5087 11.95178,5.86531 17.42388,11.33331 5.47199,5.46389 8.82981,10.94983 11.35061,17.41523 2.4183,6.25029 4.07603,13.38686 4.56793,23.85185 0.4713,10.48549 0.59694,13.8434 0.59694,40.54037 0,26.69687 -0.12564,30.03767 -0.59694,40.52306 -0.4919,10.46089 -2.14963,17.59946 -4.56793,23.85186 -2.5208,6.46329 -5.87862,11.95133 -11.35061,17.41523 -5.4659,5.46799 -10.94714,8.83136 -17.41523,11.34196 -6.25899,2.43099 -13.41367,4.08872 -23.88646,4.56792 -10.49319,0.4772 -13.8389,0.59695 -40.557671,0.59695 -26.71467,0 -30.06438,-0.11995 -40.55767,-0.59695 -10.47059,-0.4793 -17.61882,-2.13703 -23.8778102,-4.56792 -6.46599,-2.5107 -11.95788,-5.87397 -17.42388,-11.34196 -5.4699898,-5.4639 -8.8272598,-10.94984 -11.3419598,-17.41523 -2.4306,-6.2503 -4.09488,-13.39552 -4.57658,-23.86051 -0.4754,-10.48539 -0.58829,-13.81744 -0.58829,-40.51441 0,-26.69687 0.11899,-30.05498 0.58829,-40.54037 0.4713,-10.46089 2.12903,-17.60811 4.56793,-23.86051 2.5208,-6.46329 5.88727,-11.94258 11.3592598,-17.40657 5.4679,-5.4659 10.95379,-8.82261 17.42388,-11.33331 6.2550002,-2.431 13.4051202,-4.08873 23.8778102,-4.56793 10.48658,-0.47689 13.862,-0.5968 40.53172,-0.59694 z m -8.79846,17.69207 c -18.33448,0.0206 -21.84504,0.14409 -30.92003,0.55369 -9.59139,0.4404 -14.80402,2.03964 -18.27171,3.39134 -4.5908,1.7858 -7.8643602,3.91307 -11.3073602,7.35367 -3.44309,3.4405 -5.57932001,6.71131 -7.36232,11.2987 -1.3465,3.4651 -2.95274,8.67002 -3.39134,18.25442 -0.4714,10.36248 -0.56234,13.45946 -0.56234,39.70983 0,26.25047 0.09094,29.36455 0.56234,39.72714 0.4365,9.58429 2.04484,14.78476 3.39134,18.24576 1.78719999,4.58949 3.91923,7.8582 7.36232,11.2987 3.443,3.4405 6.7165602,5.57198 11.3073602,7.35367 3.46979,1.3455 8.68032,2.94905 18.27171,3.39134 10.37029,0.471 13.47657,0.571 39.74444,0.571 26.265881,0 29.382901,-0.1 39.753091,-0.571 9.59149,-0.43829 14.79947,-2.03964 18.26307,-3.39134 4.59279,-1.78169 7.86435,-3.91307 11.30735,-7.35367 3.4431,-3.4384 5.57933,-6.70265 7.36233,-11.29005 1.34649,-3.461 2.95274,-8.66147 3.39134,-18.24576 0.4714,-10.36249 0.57099,-13.47586 0.57099,-39.70984 0,-26.23407 -0.0996,-29.34734 -0.57099,-39.70983 -0.4365,-9.58439 -2.04485,-14.78477 -3.39134,-18.24576 -1.7872,-4.5873 -3.91923,-7.86676 -7.36233,-11.30736 -3.441,-3.44049 -6.71656,-5.57197 -11.30735,-7.35367 -3.4677,-1.3455 -8.67158,-2.94439 -18.26307,-3.38269 -10.37229,-0.471 -13.48721,-0.56234 -39.753091,-0.56234 -3.2832,0 -6.20511,-0.004 -8.82441,0 z m 61.338291,16.34245 c 6.51729,0 11.80913,5.27944 11.80913,11.79184 0,6.51249 -5.29194,11.80048 -11.80913,11.80048 -6.51729,0 -11.80048,-5.28799 -11.80048,-11.80048 0,-6.5144 5.28319,-11.79184 11.80048,-11.79184 z M 74.303459,62.09709 c 27.899271,0 50.515411,22.61089 50.515411,50.48946 0,27.87857 -22.61614,50.4635 -50.515411,50.4635 -27.89927,0 -50.51541,-22.58493 -50.51541,-50.4635 0,-27.87857 22.61614,-50.48946 50.51541,-50.48946 z m 0,17.71803 c -18.11098,0 -32.78873,14.67385 -32.78873,32.77143 0,18.09558 14.67775,32.76277 32.78873,32.76277 18.10898,0 32.797381,-14.66719 32.797381,-32.76277 0,-18.09758 -14.688401,-32.77143 -32.797381,-32.77143 z" /></g></g></svg>
