<?xml version="1.0" encoding="UTF-8" standalone="no"?>
<!-- Created with Inkscape (http://www.inkscape.org/) -->

<svg
   width="30"
   height="29.999769"
   viewBox="0 0 7.9374998 7.9374391"
   version="1.1"
   id="svg5"
   inkscape:version="1.3 (0e150ed6c4, 2023-07-21)"
   sodipodi:docname="tiktok.svg"
   xml:space="preserve"
   inkscape:export-filename="02.png"
   inkscape:export-xdpi="96"
   inkscape:export-ydpi="96"
   xmlns:inkscape="http://www.inkscape.org/namespaces/inkscape"
   xmlns:sodipodi="http://sodipodi.sourceforge.net/DTD/sodipodi-0.dtd"
   xmlns="http://www.w3.org/2000/svg"
   xmlns:svg="http://www.w3.org/2000/svg"><sodipodi:namedview
     id="namedview7"
     pagecolor="#3a3a3a"
     bordercolor="#000000"
     borderopacity="0.25"
     inkscape:showpageshadow="2"
     inkscape:pageopacity="0"
     inkscape:pagecheckerboard="0"
     inkscape:deskcolor="#4f4f4f"
     inkscape:document-units="px"
     showgrid="false"
     showborder="false"
     inkscape:zoom="13.365385"
     inkscape:cx="4.5640286"
     inkscape:cy="-0.67338127"
     inkscape:window-width="1920"
     inkscape:window-height="1057"
     inkscape:window-x="1358"
     inkscape:window-y="0"
     inkscape:window-maximized="1"
     inkscape:current-layer="layer1"
     showguides="true" /><defs
     id="defs2" /><g
     inkscape:label="Capa 1"
     inkscape:groupmode="layer"
     id="layer1"
     transform="translate(187.04366,-522.87725)"><path
       id="path2"
       style="fill:#ffffff;fill-opacity:1;stroke-width:1.32292;stroke-linecap:round;-inkscape-stroke:none"
       d="M -183.07491 522.87725 A 3.8116271 3.96875 0 0 0 -186.88656 526.846 A 3.8116271 3.96875 0 0 0 -183.07491 530.81475 A 3.8116271 3.96875 0 0 0 -179.26326 526.846 A 3.8116271 3.96875 0 0 0 -183.07491 522.87725 z M -182.91885 523.6493 L -181.82072 523.6493 C -181.82252 523.6493 -181.83395 523.75435 -181.80625 523.91698 L -181.80832 523.91698 C -181.77515 524.11292 -181.68509 524.39301 -181.444 524.66887 A 1.7698116 1.7698116 0 0 0 -181.12102 524.94327 A 1.4554626 1.4554626 0 0 0 -180.99493 525.01665 L -180.99338 525.0151 C -180.7126 525.15506 -180.43856 525.19775 -180.3035 525.18305 L -180.3035 526.27343 C -180.3035 526.27343 -180.68867 526.25744 -180.97478 526.18144 C -181.37357 526.07474 -181.62952 525.91066 -181.62952 525.91066 C -181.62952 525.91066 -181.80691 525.7936 -181.82021 525.7856 L -181.82021 528.03818 C -181.82021 528.16339 -181.8531 528.47667 -181.9525 528.73787 A 2.1106672 2.1106672 0 0 1 -182.32095 529.34972 C -182.32095 529.34972 -182.56586 529.65326 -182.99636 529.85719 C -183.3845 530.04113 -183.72633 530.03715 -183.82835 530.04115 C -183.82835 530.04115 -184.41761 530.06495 -184.94921 529.70371 L -184.95128 529.70164 L -184.95128 529.70371 A 2.2314785 2.2314785 0 0 1 -185.42722 529.25516 C -185.59545 529.04057 -185.69869 528.78612 -185.72539 528.71152 L -185.72539 528.70945 C -185.76767 528.58278 -185.85652 528.27614 -185.84322 527.9803 C -185.82204 527.4591 -185.64715 527.13777 -185.60085 527.05787 A 2.1550223 2.1550223 0 0 1 -185.1306 526.47806 A 2.0398054 2.0398054 0 0 1 -183.5586 526.01814 L -183.56067 527.13642 A 0.91773928 0.91773928 0 0 0 -183.84592 527.09146 C -184.35754 527.09146 -184.77196 527.5085 -184.77196 528.02371 C -184.77196 528.53892 -184.35754 528.95595 -183.84592 528.95595 A 0.91640726 0.91640726 0 0 0 -183.39169 528.83606 A 0.93239114 0.93239114 0 0 0 -182.92246 528.09605 L -182.92246 528.09399 C -182.9218 528.09099 -182.92195 528.0882 -182.92195 528.0852 C -182.92182 528.0777 -182.92091 528.07153 -182.92091 528.06453 C -182.91891 528.00885 -182.91885 527.95255 -182.91885 527.89555 L -182.91885 523.6493 z " /></g></svg>
