<?xml version="1.0" encoding="UTF-8" standalone="no"?>
<!-- Created with Inkscape (http://www.inkscape.org/) -->

<svg
   width="29.99925"
   height="30.134258"
   viewBox="0 0 7.9373015 7.9730227"
   version="1.1"
   id="svg5"
   inkscape:version="1.3 (0e150ed6c4, 2023-07-21)"
   sodipodi:docname="wapp.svg"
   xml:space="preserve"
   inkscape:export-filename="02.png"
   inkscape:export-xdpi="96"
   inkscape:export-ydpi="96"
   xmlns:inkscape="http://www.inkscape.org/namespaces/inkscape"
   xmlns:sodipodi="http://sodipodi.sourceforge.net/DTD/sodipodi-0.dtd"
   xmlns="http://www.w3.org/2000/svg"
   xmlns:svg="http://www.w3.org/2000/svg"><sodipodi:namedview
     id="namedview7"
     pagecolor="#3a3a3a"
     bordercolor="#000000"
     borderopacity="0.25"
     inkscape:showpageshadow="2"
     inkscape:pageopacity="0"
     inkscape:pagecheckerboard="0"
     inkscape:deskcolor="#4f4f4f"
     inkscape:document-units="px"
     showgrid="false"
     showborder="false"
     inkscape:zoom="13.365385"
     inkscape:cx="5.0129495"
     inkscape:cy="14.627338"
     inkscape:window-width="1920"
     inkscape:window-height="1057"
     inkscape:window-x="1358"
     inkscape:window-y="815"
     inkscape:window-maximized="1"
     inkscape:current-layer="layer1"
     showguides="true" /><defs
     id="defs2" /><g
     inkscape:label="Capa 1"
     inkscape:groupmode="layer"
     id="layer1"
     transform="translate(187.04355,-536.12419)"><g
       id="g23773-5-3-26"
       transform="matrix(0.20301239,0,0,0.20301239,-352.77562,429.77824)"
       style="fill:#ffffff;fill-opacity:1;stroke-width:4.92581"><path
         id="path23695-2-0-75"
         style="fill:#ffffff;fill-opacity:1;stroke-width:1.30329"
         d="m 835.99475,523.83969 c -10.73069,0 -19.46181,8.72873 -19.46681,19.45915 a 19.425708,19.425708 0 0 0 2.59779,9.73021 l -2.76143,10.08433 10.31957,-2.70646 c 2.84348,1.55046 6.04541,2.36796 9.30321,2.36896 h 0.008 c 10.7291,0 19.46182,-8.7308 19.46682,-19.46043 0.002,-5.2001 -2.0196,-10.0903 -5.69546,-13.7688 -3.67583,-3.67848 -8.5641,-5.70396 -13.77136,-5.70696 z m 0.006,3.28687 a 16.073437,16.073437 0 0 1 11.4382,4.74302 16.073437,16.073437 0 0 1 4.73535,11.44332 c -0.003,8.91882 -7.26166,16.1761 -16.17995,16.1761 h -0.006 c -2.90407,-0.002 -5.75207,-0.78119 -8.23571,-2.25516 l -0.59064,-0.3503 -6.12373,1.60572 1.63385,-5.96903 -0.38481,-0.6111 a 16.134291,16.134291 0 0 1 -2.47379,-8.60902 c 0.003,-8.91829 7.26243,-16.17355 16.18762,-16.17355 z m -6.89847,7.18484 c -0.32438,0 -0.85206,0.12171 -1.29762,0.60854 -0.44556,0.48684 -1.70288,1.66333 -1.70288,4.05649 0,2.39315 1.74381,4.70575 1.9867,5.03066 0.24288,0.32491 3.36432,5.39237 8.30858,7.34208 4.10871,1.62031 4.94518,1.29804 5.83736,1.21708 0.89217,-0.081 2.87796,-1.17556 3.28304,-2.31142 0.40508,-1.13585 0.40525,-2.10923 0.28381,-2.3127 -0.12145,-0.20346 -0.44643,-0.32422 -0.93326,-0.56763 -0.48683,-0.24342 -2.87685,-1.42025 -3.32267,-1.58271 -0.44583,-0.16245 -0.77097,-0.24393 -1.09562,0.24291 -0.32464,0.48683 -1.25534,1.58279 -1.53924,1.90743 -0.28389,0.32465 -0.5666,0.3646 -1.05344,0.12145 -0.48683,-0.24315 -2.05359,-0.7566 -3.91203,-2.41369 -1.44594,-1.28931 -2.4223,-2.88085 -2.70646,-3.36742 -0.28416,-0.48656 -0.0305,-0.75098 0.2135,-0.99334 0.21828,-0.21801 0.48631,-0.56755 0.72999,-0.85144 0.24369,-0.2839 0.32388,-0.4877 0.48581,-0.81181 0.16192,-0.32412 0.0821,-0.6083 -0.0396,-0.85145 -0.12171,-0.24315 -1.06728,-2.64828 -1.49961,-3.61031 -0.3646,-0.80989 -0.74801,-0.8272 -1.09435,-0.84122 z" /></g></g></svg>
