<?xml version="1.0" encoding="UTF-8" standalone="no"?>
<!-- Created with Inkscape (http://www.inkscape.org/) -->

<svg
   width="200"
   height="200"
   viewBox="0 0 52.91666 52.916659"
   version="1.1"
   id="svg5"
   inkscape:version="1.3.2 (091e20e, 2023-11-25, custom)"
   sodipodi:docname="logo_solo.svg"
   xml:space="preserve"
   inkscape:export-filename="logo_solo.png"
   inkscape:export-xdpi="96"
   inkscape:export-ydpi="96"
   xmlns:inkscape="http://www.inkscape.org/namespaces/inkscape"
   xmlns:sodipodi="http://sodipodi.sourceforge.net/DTD/sodipodi-0.dtd"
   xmlns="http://www.w3.org/2000/svg"
   xmlns:svg="http://www.w3.org/2000/svg"><sodipodi:namedview
     id="namedview7"
     pagecolor="#4e4e4e"
     bordercolor="#000000"
     borderopacity="0"
     inkscape:showpageshadow="2"
     inkscape:pageopacity="0"
     inkscape:pagecheckerboard="0"
     inkscape:deskcolor="#2b2b2b"
     inkscape:document-units="px"
     showgrid="true"
     showborder="false"
     inkscape:zoom="0.70710678"
     inkscape:cx="281.4285"
     inkscape:cy="65.760931"
     inkscape:window-width="1366"
     inkscape:window-height="745"
     inkscape:window-x="1072"
     inkscape:window-y="-8"
     inkscape:window-maximized="1"
     inkscape:current-layer="layer1"
     showguides="false"><inkscape:grid
       type="xygrid"
       id="grid3227"
       units="mm"
       spacingx="99.999998"
       spacingy="99.999998"
       empspacing="1"
       color="#ffffff"
       opacity="0"
       empcolor="#5cff1a"
       empopacity="0.14901961"
       originx="0"
       originy="0"
       dotted="false"
       visible="true"
       snapvisiblegridlinesonly="true"
       enabled="false" /><inkscape:grid
       type="xygrid"
       id="grid32233"
       units="mm"
       spacingy="9.9999998"
       spacingx="9.9999998"
       empspacing="1"
       color="#33ffff"
       opacity="0.12156863"
       empcolor="#33ffff"
       empopacity="0.10196078"
       originx="0"
       originy="0"
       dotted="false"
       visible="true"
       enabled="false" /><inkscape:grid
       type="xygrid"
       id="grid32235"
       empspacing="1"
       dotted="false"
       empcolor="#0dff01"
       empopacity="0.05098039"
       color="#33ff55"
       opacity="0"
       units="mm"
       spacingy="0.99999998"
       spacingx="0.99999998"
       originx="0"
       originy="0"
       visible="true"
       enabled="false" /><inkscape:grid
       type="xygrid"
       id="grid32237"
       units="mm"
       color="#e666ff"
       opacity="0"
       empcolor="#e666ff"
       empopacity="0.03137255"
       dotted="true"
       spacingy="0.49999999"
       spacingx="0.49999999"
       originy="0"
       originx="0"
       empspacing="1"
       visible="true"
       enabled="false" /></sodipodi:namedview><defs
     id="defs2" /><g
     inkscape:label="Capa 1"
     inkscape:groupmode="layer"
     id="layer1"><path
       style="display:inline;fill:#ecb67a;fill-opacity:1;stroke:none;stroke-width:2;stop-color:#000000"
       d="M 34.400802,12.968283 C 33.94899,15.376506 32.242059,18.06263 29.597786,18.275181 33.803211,3.8269364 24.676591,-3.8310302 10.09462,1.9222013 l 1.006249,1.7675539 C 8.7155423,5.8026276 8.2421083,7.5620406 7.7465323,10.528682 c 2.9666117,0.495576 4.7260257,0.96901 6.8388967,3.354342 l 1.767554,-1.006251 C 22.106216,27.458731 14.448249,36.585351 0,32.379936 c 0.2125552,2.644264 2.8986862,4.351196 5.3069059,4.803016 -0.08236,3.160714 0.4526486,5.933537 2.4395974,7.9872 2.053694,1.986952 4.8265147,2.521963 7.9872347,2.439602 0.451811,2.408223 2.158743,5.094356 4.803014,5.306906 -4.20542,-14.448256 4.921199,-22.106215 19.503166,-16.352988 l -1.006241,1.767552 c 2.385322,2.112872 2.858752,3.872283 3.354363,6.838928 2.966633,-0.495541 4.726056,-0.968981 6.838928,-3.354305 l 1.767552,1.006252 C 56.747747,28.240132 49.089788,19.113512 34.641531,23.318927 c 0.212561,-2.644273 2.898684,-4.351195 5.306907,-4.803015 -0.0824,-3.160716 0.45265,-5.933539 2.439602,-7.98723 -2.053692,1.98695 -4.826515,2.521961 -7.987238,2.439601 z"
       id="use14892-8-7-5-2-5"
       sodipodi:nodetypes="ccccccccccccccccccccc" /></g></svg>
