<?xml version="1.0" encoding="UTF-8" standalone="no"?>
<!-- Created with Inkscape (http://www.inkscape.org/) -->

<svg
   width="26cm"
   height="50cm"
   viewBox="0 0 259.99997 499.99992"
   version="1.1"
   id="svg5"
   inkscape:version="1.3.2 (091e20e, 2023-11-25, custom)"
   sodipodi:docname="patron_logo.svg"
   xml:space="preserve"
   xmlns:inkscape="http://www.inkscape.org/namespaces/inkscape"
   xmlns:sodipodi="http://sodipodi.sourceforge.net/DTD/sodipodi-0.dtd"
   xmlns="http://www.w3.org/2000/svg"
   xmlns:svg="http://www.w3.org/2000/svg"><sodipodi:namedview
     id="namedview7"
     pagecolor="#4e4e4e"
     bordercolor="#000000"
     borderopacity="0"
     inkscape:showpageshadow="2"
     inkscape:pageopacity="0"
     inkscape:pagecheckerboard="0"
     inkscape:deskcolor="#2b2b2b"
     inkscape:document-units="px"
     showgrid="true"
     showborder="false"
     inkscape:zoom="0.25000001"
     inkscape:cx="959.99997"
     inkscape:cy="-769.99998"
     inkscape:window-width="1536"
     inkscape:window-height="841"
     inkscape:window-x="3278"
     inkscape:window-y="465"
     inkscape:window-maximized="1"
     inkscape:current-layer="g21"
     showguides="false"><inkscape:grid
       type="xygrid"
       id="grid3227"
       units="mm"
       spacingx="99.999998"
       spacingy="99.999998"
       empspacing="1"
       color="#ffffff"
       opacity="0"
       empcolor="#5cff1a"
       empopacity="0.14901961"
       originx="0"
       originy="0"
       dotted="false"
       visible="true"
       snapvisiblegridlinesonly="true"
       enabled="false" /><inkscape:grid
       type="xygrid"
       id="grid32233"
       units="mm"
       spacingy="9.9999998"
       spacingx="9.9999998"
       empspacing="1"
       color="#33ffff"
       opacity="0.12156863"
       empcolor="#33ffff"
       empopacity="0.10196078"
       originx="0"
       originy="0"
       dotted="false"
       visible="true"
       enabled="false" /><inkscape:grid
       type="xygrid"
       id="grid32235"
       empspacing="1"
       dotted="false"
       empcolor="#0dff01"
       empopacity="0.05098039"
       color="#33ff55"
       opacity="0"
       units="mm"
       spacingy="0.99999998"
       spacingx="0.99999998"
       originx="0"
       originy="0"
       visible="true"
       enabled="false" /><inkscape:grid
       type="xygrid"
       id="grid32237"
       units="mm"
       color="#e666ff"
       opacity="0"
       empcolor="#e666ff"
       empopacity="0.03137255"
       dotted="true"
       spacingy="0.49999999"
       spacingx="0.49999999"
       originy="0"
       originx="0"
       empspacing="1"
       visible="true"
       enabled="false" /></sodipodi:namedview><defs
     id="defs2"><clipPath
       clipPathUnits="userSpaceOnUse"
       id="clipPath75-7"><path
         style="fill:#00ff00;stroke-width:0.264583;stroke-linecap:round;stroke-linejoin:round;paint-order:markers stroke fill"
         d="m -627.70363,-115.40982 8e-5,317.49996 h 264.58324 l -1.8e-4,-317.49993 z"
         id="path75-9" /></clipPath><clipPath
       clipPathUnits="userSpaceOnUse"
       id="clipPath75-9"><path
         style="fill:#00ff00;stroke-width:0.264583;stroke-linecap:round;stroke-linejoin:round;paint-order:markers stroke fill"
         d="m -627.70363,-115.40982 8e-5,317.49996 h 264.58324 l -1.8e-4,-317.49993 z"
         id="path75-3" /></clipPath><clipPath
       clipPathUnits="userSpaceOnUse"
       id="clipPath76"><path
         style="fill:#d40000;fill-opacity:1;fill-rule:nonzero;stroke:none;stroke-width:0.264583;stroke-linecap:round;stroke-linejoin:round;paint-order:markers stroke fill"
         d="M 14.33559,14.33551 V 328.88482 H 276.46004 V 14.335558 Z"
         id="path77" /></clipPath></defs><g
     inkscape:label="Capa 1"
     inkscape:groupmode="layer"
     id="layer1"><g
       id="g20"
       style="stroke:#1b1b1b;stroke-opacity:1;stroke-width:1.00012485;stroke-dasharray:none"
       transform="translate(0,9.8677422)"><g
         id="g21"
         transform="matrix(-1,0,0,1,260,0)"
         style="stroke-width:0.26458329;stroke-dasharray:none;stroke:#212121;stroke-opacity:1"><rect
           style="opacity:1;fill:#101010;stroke:none;stroke-width:1.32292;stroke-linecap:round;stroke-linejoin:round;paint-order:markers stroke fill;fill-opacity:1"
           id="rect1"
           width="260"
           height="500"
           x="-260"
           y="-9.8677425"
           transform="scale(-1,1)" /><g
           id="g4"
           transform="matrix(1.6462475,0,0,1.6462475,-1210.3338,-506.41464)"
           style="stroke:#1d1d1d;stroke-width:0.32143805;stroke-dasharray:none;stroke-opacity:1;fill:none;fill-opacity:1"><rect
             style="opacity:1;fill:none;fill-opacity:1;stroke:#1d1d1d;stroke-width:0.32143805;stroke-linecap:round;stroke-linejoin:round;stroke-dasharray:none;stroke-opacity:1;paint-order:markers stroke fill"
             id="rect2"
             width="29.999998"
             height="40"
             x="-626.87494"
             y="-186.86772"
             transform="scale(-1,1)" /><path
             style="fill:none;fill-opacity:1;stroke:#1d1d1d;stroke-width:0.32143805;stroke-linecap:round;stroke-linejoin:round;stroke-dasharray:none;stroke-opacity:1;paint-order:markers stroke fill"
             d="m 863.80311,343.50488 28.6239,57.24794 -6.44039,12.88078 17.17438,8.58719 17.88998,35.77997 -7.15599,14.31198 28.62397,57.24794 21.46805,-42.93596 -57.24801,-114.49587 7.15599,-14.31199 -17.88998,-35.77996 -17.17438,-8.58719 z"
             id="path2-1-4-8-9-19"
             sodipodi:nodetypes="ccccccccccccc" /><path
             style="fill:none;fill-opacity:1;stroke:#1d1d1d;stroke-width:0.32143805;stroke-linecap:round;stroke-linejoin:round;stroke-dasharray:none;stroke-opacity:1;paint-order:markers stroke fill"
             d="m 856.64714,243.321 28.6239,57.24794 -6.4404,12.88078 17.17439,8.58719 17.88998,35.77997 -7.156,14.31198 28.62397,57.24794 21.46806,-42.93596 -57.24802,-114.49587 7.15599,-14.31199 -17.88998,-35.77996 -17.17438,-8.58719 z"
             id="path2-1-4-8-9-6-9"
             sodipodi:nodetypes="ccccccccccccc" /><path
             style="fill:none;fill-opacity:1;stroke:#1d1d1d;stroke-width:0.32143805;stroke-linecap:round;stroke-linejoin:round;stroke-dasharray:none;stroke-opacity:1;paint-order:markers stroke fill"
             d="m 849.49115,143.13711 28.62389,57.24794 -6.44039,12.88078 17.17438,8.58719 17.88998,35.77997 -7.15599,14.31198 28.62397,57.24794 21.46805,-42.93596 -57.24801,-114.49587 7.15599,-14.31199 -17.88998,-35.77996 -17.17438,-8.58719 z"
             id="path2-1-4-8-9-66-3"
             sodipodi:nodetypes="ccccccccccccc" /><path
             style="fill:none;fill-opacity:1;stroke:#1d1d1d;stroke-width:0.32143805;stroke-linecap:round;stroke-linejoin:round;stroke-dasharray:none;stroke-opacity:1;paint-order:markers stroke fill"
             d="m 842.33516,42.953222 28.62389,57.247938 -6.44039,12.88078 17.17438,8.58719 17.88998,35.77997 -7.15599,14.31198 28.62397,57.24794 21.46805,-42.93596 -57.24801,-114.495868 7.15599,-14.31199 -17.88998,-35.77996 -17.17438,-8.58719 z"
             id="path2-1-4-8-9-4-6"
             sodipodi:nodetypes="ccccccccccccc" /><path
             style="fill:none;fill-opacity:1;stroke:#1d1d1d;stroke-width:0.32143805;stroke-linecap:round;stroke-linejoin:round;stroke-dasharray:none;stroke-opacity:1;paint-order:markers stroke fill"
             d="m 870.95911,443.68877 28.62389,57.24794 -6.44039,12.88079 17.17438,8.58719 17.88999,35.77996 -7.156,14.31198 28.62397,57.24794 21.46805,-42.93595 -57.24801,-114.49588 7.15599,-14.31198 -17.88998,-35.77997 -17.17438,-8.58719 z"
             id="path2-1-4-8-8-7-3"
             sodipodi:nodetypes="ccccccccccccc" /><path
             style="fill:none;fill-opacity:1;stroke:#1d1d1d;stroke-width:0.32143805;stroke-linecap:round;stroke-linejoin:round;stroke-dasharray:none;stroke-opacity:1;paint-order:markers stroke fill"
             d="m 928.20699,329.19286 28.6239,57.24794 -6.44039,12.88078 17.17438,8.58719 17.88998,35.77997 -7.15599,14.31198 28.62393,57.24794 21.4681,-42.93596 -57.24802,-114.49587 7.15599,-14.31199 -17.88998,-35.77996 -17.17438,-8.58719 z"
             id="path2-1-4-8-9-3"
             sodipodi:nodetypes="ccccccccccccc" /><path
             style="fill:none;fill-opacity:1;stroke:#1d1d1d;stroke-width:0.32143805;stroke-linecap:round;stroke-linejoin:round;stroke-dasharray:none;stroke-opacity:1;paint-order:markers stroke fill"
             d="m 921.05102,229.00898 28.6239,57.24794 -6.4404,12.88078 17.17439,8.58719 17.88998,35.77997 -7.156,14.31198 28.62397,57.24794 21.46804,-42.93596 -57.248,-114.49587 7.15599,-14.31199 -17.88998,-35.77996 -17.17438,-8.58719 z"
             id="path2-1-4-8-9-6-93"
             sodipodi:nodetypes="ccccccccccccc" /><path
             style="fill:none;fill-opacity:1;stroke:#1d1d1d;stroke-width:0.32143805;stroke-linecap:round;stroke-linejoin:round;stroke-dasharray:none;stroke-opacity:1;paint-order:markers stroke fill"
             d="m 913.89503,128.82508 28.62389,57.24794 -6.44039,12.88079 17.17438,8.58719 17.88998,35.77997 -7.15599,14.31198 28.62397,57.24794 21.46803,-42.93596 -57.24799,-114.49588 7.15599,-14.31199 -17.88998,-35.77996 -17.17438,-8.587189 z"
             id="path2-1-4-8-9-66-2"
             sodipodi:nodetypes="ccccccccccccc" /><path
             style="fill:none;fill-opacity:1;stroke:#1d1d1d;stroke-width:0.32143805;stroke-linecap:round;stroke-linejoin:round;stroke-dasharray:none;stroke-opacity:1;paint-order:markers stroke fill"
             d="m 906.73904,28.64119 28.62389,57.247941 -6.44039,12.88078 17.17438,8.587189 17.88998,35.77997 -7.15599,14.31198 28.62397,57.24795 21.46802,-42.93597 -57.24798,-114.495869 7.15599,-14.311991 -17.88998,-35.7799596 -17.17438,-8.58719 z"
             id="path2-1-4-8-9-4-0"
             sodipodi:nodetypes="ccccccccccccc" /><path
             style="fill:none;fill-opacity:1;stroke:#1d1d1d;stroke-width:0.32143805;stroke-linecap:round;stroke-linejoin:round;stroke-dasharray:none;stroke-opacity:1;paint-order:markers stroke fill"
             d="m 935.36299,429.37675 28.62389,57.24794 -6.44039,12.88079 17.17438,8.58719 17.88999,35.77996 -7.156,14.31198 28.62394,57.24794 21.4681,-42.93595 -57.24803,-114.49588 7.15599,-14.31198 -17.88998,-35.77997 -17.17438,-8.58719 z"
             id="path2-1-4-8-8-7-1"
             sodipodi:nodetypes="ccccccccccccc" /><path
             style="fill:none;fill-opacity:1;stroke:#1d1d1d;stroke-width:0.32143805;stroke-linecap:round;stroke-linejoin:round;stroke-dasharray:none;stroke-opacity:1;paint-order:markers stroke fill"
             d="m 985.455,214.69697 28.6239,57.24794 -6.4404,12.88078 17.1744,8.58719 17.89,35.77997 -7.156,14.31198 28.6239,57.24794 21.4681,-42.93596 -57.248,-114.49587 7.156,-14.31199 -17.89,-35.77996 -17.1744,-8.58719 z"
             id="path2-1-4-8-9-01"
             sodipodi:nodetypes="ccccccccccccc" /><path
             style="fill:none;fill-opacity:1;stroke:#1d1d1d;stroke-width:0.32143805;stroke-linecap:round;stroke-linejoin:round;stroke-dasharray:none;stroke-opacity:1;paint-order:markers stroke fill"
             d="m 978.29903,114.51309 28.62387,57.24794 -6.4404,12.88078 17.1744,8.58719 17.89,35.77997 -7.156,14.31198 28.624,57.24794 21.468,-42.93596 -57.248,-114.49587 7.156,-14.31199 -17.89,-35.779964 -17.17436,-8.58719 z"
             id="path2-1-4-8-9-6-5"
             sodipodi:nodetypes="ccccccccccccc" /><path
             style="fill:none;fill-opacity:1;stroke:#1d1d1d;stroke-width:0.32143805;stroke-linecap:round;stroke-linejoin:round;stroke-dasharray:none;stroke-opacity:1;paint-order:markers stroke fill"
             d="m 971.14304,14.329194 28.62389,57.247942 -6.44039,12.88078 17.17436,8.58719 17.89,35.779974 -7.156,14.31198 28.624,57.24794 21.468,-42.93596 -57.248,-114.495876 7.156,-14.31199 -17.89,-35.7799596 -17.17435,-8.5871904 z"
             id="path2-1-4-8-9-66-35"
             sodipodi:nodetypes="ccccccccccccc" /><path
             style="fill:none;fill-opacity:1;stroke:#1d1d1d;stroke-width:0.32143805;stroke-linecap:round;stroke-linejoin:round;stroke-dasharray:none;stroke-opacity:1;paint-order:markers stroke fill"
             d="m 963.98705,-85.854701 28.62389,57.247945 -6.44039,12.88078 17.17435,8.5871904 17.89,35.7799696 -7.156,14.31198 28.624,57.247946 21.468,-42.935964 -57.248,-114.495872 7.156,-14.31199 -17.88996,-35.779964 -17.17438,-8.58719 z"
             id="path2-1-4-8-9-4-18"
             sodipodi:nodetypes="ccccccccccccc" /><path
             style="fill:none;fill-opacity:1;stroke:#1d1d1d;stroke-width:0.32143805;stroke-linecap:round;stroke-linejoin:round;stroke-dasharray:none;stroke-opacity:1;paint-order:markers stroke fill"
             d="m 899.58315,-71.542716 28.62389,57.247944 -6.44039,12.8807804 17.17438,8.58719 17.88998,35.7799696 -7.15599,14.31198 28.62398,57.247942 21.46804,-42.93596 -57.24801,-114.495872 7.15599,-14.311994 -17.88998,-35.779965 -17.17438,-8.587189 z"
             id="path2-1-4-8-9-4-18-6"
             sodipodi:nodetypes="ccccccccccccc" /><path
             style="fill:none;fill-opacity:1;stroke:#1d1d1d;stroke-width:0.32143805;stroke-linecap:round;stroke-linejoin:round;stroke-dasharray:none;stroke-opacity:1;paint-order:markers stroke fill"
             d="m 835.17915,-57.230718 28.6239,57.24794242 -6.44039,12.88077958 17.17438,8.58719 17.88997,35.77997 -7.15598,14.31198 28.62397,57.247946 21.46805,-42.935964 -57.24802,-114.495872 7.15599,-14.31199 -17.88998,-35.779962 -17.17437,-8.587193 z"
             id="path2-1-4-8-9-4-18-2"
             sodipodi:nodetypes="ccccccccccccc" /><path
             style="fill:none;fill-opacity:1;stroke:#1d1d1d;stroke-width:0.32143805;stroke-linecap:round;stroke-linejoin:round;stroke-dasharray:none;stroke-opacity:1;paint-order:markers stroke fill"
             d="m 799.39911,357.81691 28.6239,57.24794 -6.44039,12.88078 17.17438,8.58719 17.88998,35.77997 -7.15599,14.31198 28.62397,57.24794 21.46805,-42.93596 -57.24801,-114.49587 7.15599,-14.31199 -17.88998,-35.77996 -17.17438,-8.58719 z"
             id="path2-1-4-8-9-19-4"
             sodipodi:nodetypes="ccccccccccccc" /><path
             style="fill:none;fill-opacity:1;stroke:#1d1d1d;stroke-width:0.32143805;stroke-linecap:round;stroke-linejoin:round;stroke-dasharray:none;stroke-opacity:1;paint-order:markers stroke fill"
             d="m 792.24314,257.63303 28.6239,57.24794 -6.4404,12.88078 17.17439,8.58719 17.88998,35.77997 -7.156,14.31198 28.62397,57.24794 21.46806,-42.93596 -57.24802,-114.49587 7.15599,-14.31199 -17.88998,-35.77996 -17.17438,-8.58719 z"
             id="path2-1-4-8-9-6-9-5"
             sodipodi:nodetypes="ccccccccccccc" /><path
             style="fill:none;fill-opacity:1;stroke:#1d1d1d;stroke-width:0.32143805;stroke-linecap:round;stroke-linejoin:round;stroke-dasharray:none;stroke-opacity:1;paint-order:markers stroke fill"
             d="m 785.08715,157.44914 28.62389,57.24794 -6.44039,12.88078 17.17438,8.58719 17.88998,35.77997 -7.15599,14.31198 28.62397,57.24794 21.46805,-42.93596 -57.24801,-114.49587 7.15599,-14.31199 -17.88998,-35.77996 -17.17438,-8.58719 z"
             id="path2-1-4-8-9-66-3-8"
             sodipodi:nodetypes="ccccccccccccc" /><path
             style="fill:none;fill-opacity:1;stroke:#1d1d1d;stroke-width:0.32143805;stroke-linecap:round;stroke-linejoin:round;stroke-dasharray:none;stroke-opacity:1;paint-order:markers stroke fill"
             d="m 777.93116,57.265254 28.62389,57.247936 -6.44039,12.88078 17.17438,8.58719 17.88998,35.77997 -7.15599,14.31198 28.62397,57.24794 21.46805,-42.93596 -57.24801,-114.49587 7.15599,-14.311986 -17.88998,-35.77996 -17.17438,-8.58719 z"
             id="path2-1-4-8-9-4-6-8"
             sodipodi:nodetypes="ccccccccccccc" /><path
             style="fill:none;fill-opacity:1;stroke:#1d1d1d;stroke-width:0.32143805;stroke-linecap:round;stroke-linejoin:round;stroke-dasharray:none;stroke-opacity:1;paint-order:markers stroke fill"
             d="m 806.55511,458.0008 28.62389,57.24794 -6.44039,12.88079 17.17438,8.58719 17.88999,35.77996 -7.156,14.31198 28.62397,57.24794 21.46805,-42.93595 -57.24801,-114.49588 7.15599,-14.31198 -17.88998,-35.77997 -17.17438,-8.58719 z"
             id="path2-1-4-8-8-7-3-1"
             sodipodi:nodetypes="ccccccccccccc" /><path
             style="fill:none;fill-opacity:1;stroke:#1d1d1d;stroke-width:0.32143805;stroke-linecap:round;stroke-linejoin:round;stroke-dasharray:none;stroke-opacity:1;paint-order:markers stroke fill"
             d="m 770.77515,-42.918686 28.6239,57.247942 -6.44039,12.88078 17.17438,8.58719 17.88997,35.77997 -7.15598,14.311984 28.62397,57.24794 21.46805,-42.93596 -57.24802,-114.495874 7.15599,-14.31199 -17.88998,-35.779962 -17.17437,-8.587193 z"
             id="path2-1-4-8-9-4-18-2-1"
             sodipodi:nodetypes="ccccccccccccc" /><path
             style="fill:none;fill-opacity:1;stroke:#1d1d1d;stroke-width:0.32143805;stroke-linecap:round;stroke-linejoin:round;stroke-dasharray:none;stroke-opacity:1;paint-order:markers stroke fill"
             d="m 734.99511,372.12895 28.6239,57.24794 -6.44039,12.88078 17.17438,8.58719 17.88998,35.77997 -7.15599,14.31198 28.62397,57.24794 21.46805,-42.93596 -57.24801,-114.49587 7.15599,-14.31199 -17.88998,-35.77996 -17.17438,-8.58719 z"
             id="path2-1-4-8-9-19-0"
             sodipodi:nodetypes="ccccccccccccc" /><path
             style="fill:none;fill-opacity:1;stroke:#1d1d1d;stroke-width:0.32143805;stroke-linecap:round;stroke-linejoin:round;stroke-dasharray:none;stroke-opacity:1;paint-order:markers stroke fill"
             d="m 727.83914,271.94507 28.6239,57.24794 -6.4404,12.88078 17.17439,8.58719 17.88998,35.77997 -7.156,14.31198 28.62397,57.24794 21.46806,-42.93596 -57.24802,-114.49587 7.15599,-14.31199 -17.88998,-35.77996 -17.17438,-8.58719 z"
             id="path2-1-4-8-9-6-9-0"
             sodipodi:nodetypes="ccccccccccccc" /><path
             style="fill:none;fill-opacity:1;stroke:#1d1d1d;stroke-width:0.32143805;stroke-linecap:round;stroke-linejoin:round;stroke-dasharray:none;stroke-opacity:1;paint-order:markers stroke fill"
             d="m 720.68315,171.76117 28.62389,57.24795 -6.44039,12.88078 17.17438,8.58719 17.88998,35.77997 -7.15599,14.31198 28.62397,57.24794 21.46805,-42.93596 -57.24801,-114.49588 7.15599,-14.31199 -17.88998,-35.77996 -17.17438,-8.58719 z"
             id="path2-1-4-8-9-66-3-7"
             sodipodi:nodetypes="ccccccccccccc" /><path
             style="fill:none;fill-opacity:1;stroke:#1d1d1d;stroke-width:0.32143805;stroke-linecap:round;stroke-linejoin:round;stroke-dasharray:none;stroke-opacity:1;paint-order:markers stroke fill"
             d="m 713.52716,71.577284 28.62389,57.247936 -6.44039,12.88078 17.17438,8.58719 17.88998,35.77997 -7.15599,14.31198 28.62397,57.24795 21.46805,-42.93596 -57.24801,-114.49587 7.15599,-14.311994 -17.88998,-35.779962 -17.17438,-8.58719 z"
             id="path2-1-4-8-9-4-6-0"
             sodipodi:nodetypes="ccccccccccccc" /><path
             style="fill:none;fill-opacity:1;stroke:#1d1d1d;stroke-width:0.32143805;stroke-linecap:round;stroke-linejoin:round;stroke-dasharray:none;stroke-opacity:1;paint-order:markers stroke fill"
             d="m 742.15111,472.31284 28.62389,57.24794 -6.44039,12.88079 17.17438,8.58719 17.88999,35.77996 -7.156,14.31198 28.62397,57.24794 21.46805,-42.93595 -57.24801,-114.49588 7.15599,-14.31198 -17.88998,-35.77997 -17.17438,-8.58719 z"
             id="path2-1-4-8-8-7-3-3"
             sodipodi:nodetypes="ccccccccccccc" /><path
             style="fill:none;fill-opacity:1;stroke:#1d1d1d;stroke-width:0.32143805;stroke-linecap:round;stroke-linejoin:round;stroke-dasharray:none;stroke-opacity:1;paint-order:markers stroke fill"
             d="m 706.37115,-28.606655 28.6239,57.247939 -6.44039,12.88078 17.17438,8.58719 17.88997,35.779974 -7.15598,14.311982 28.62397,57.24794 21.46805,-42.93596 -57.24802,-114.4958748 7.15599,-14.3119902 -17.88998,-35.77996 -17.17437,-8.58719 z"
             id="path2-1-4-8-9-4-18-2-4"
             sodipodi:nodetypes="ccccccccccccc" /><path
             style="fill:none;fill-opacity:1;stroke:#1d1d1d;stroke-width:0.32143805;stroke-linecap:round;stroke-linejoin:round;stroke-dasharray:none;stroke-opacity:1;paint-order:markers stroke fill"
             d="m 670.59123,386.44098 28.6239,57.24794 -6.44039,12.88078 17.17438,8.58719 17.88998,35.77997 -7.15599,14.31198 28.62397,57.24794 21.46805,-42.93596 -57.24801,-114.49587 7.15599,-14.31199 -17.88998,-35.77996 -17.17438,-8.58719 z"
             id="path2-1-4-8-9-19-8"
             sodipodi:nodetypes="ccccccccccccc" /><path
             style="fill:none;fill-opacity:1;stroke:#1d1d1d;stroke-width:0.32143805;stroke-linecap:round;stroke-linejoin:round;stroke-dasharray:none;stroke-opacity:1;paint-order:markers stroke fill"
             d="m 663.43526,286.2571 28.6239,57.24794 -6.4404,12.88078 17.17439,8.58719 17.88998,35.77997 -7.156,14.31198 28.62397,57.24794 21.46806,-42.93596 -57.24802,-114.49587 7.15599,-14.31199 -17.88998,-35.77996 -17.17438,-8.58719 z"
             id="path2-1-4-8-9-6-9-4"
             sodipodi:nodetypes="ccccccccccccc" /><path
             style="fill:none;fill-opacity:1;stroke:#1d1d1d;stroke-width:0.32143805;stroke-linecap:round;stroke-linejoin:round;stroke-dasharray:none;stroke-opacity:1;paint-order:markers stroke fill"
             d="m 656.27927,186.07321 28.62389,57.24794 -6.44039,12.88078 17.17438,8.58719 17.88998,35.77997 -7.15599,14.31198 28.62397,57.24794 21.46805,-42.93596 -57.24801,-114.49587 7.15599,-14.31199 -17.88998,-35.77996 -17.17438,-8.58719 z"
             id="path2-1-4-8-9-66-3-4"
             sodipodi:nodetypes="ccccccccccccc" /><path
             style="fill:none;fill-opacity:1;stroke:#1d1d1d;stroke-width:0.32143805;stroke-linecap:round;stroke-linejoin:round;stroke-dasharray:none;stroke-opacity:1;paint-order:markers stroke fill"
             d="m 649.12328,85.889318 28.62389,57.247942 -6.44039,12.88078 17.17438,8.58719 17.88998,35.77997 -7.15599,14.31198 28.62397,57.24794 21.46805,-42.93596 -57.24801,-114.49587 7.15599,-14.31199 -17.88998,-35.779962 -17.17438,-8.587192 z"
             id="path2-1-4-8-9-4-6-05"
             sodipodi:nodetypes="ccccccccccccc" /><path
             style="fill:none;fill-opacity:1;stroke:#1d1d1d;stroke-width:0.32143805;stroke-linecap:round;stroke-linejoin:round;stroke-dasharray:none;stroke-opacity:1;paint-order:markers stroke fill"
             d="m 677.74723,486.62487 28.62389,57.24794 -6.44039,12.88079 17.17438,8.58719 17.88999,35.77996 -7.156,14.31198 28.62397,57.24794 21.46805,-42.93595 -57.24801,-114.49588 7.15599,-14.31198 -17.88998,-35.77997 -17.17438,-8.58719 z"
             id="path2-1-4-8-8-7-3-0"
             sodipodi:nodetypes="ccccccccccccc" /><path
             style="fill:none;fill-opacity:1;stroke:#1d1d1d;stroke-width:0.32143805;stroke-linecap:round;stroke-linejoin:round;stroke-dasharray:none;stroke-opacity:1;paint-order:markers stroke fill"
             d="m 641.96727,-14.294624 28.6239,57.24794 -6.44039,12.88078 17.17438,8.587194 17.88997,35.77997 -7.15598,14.31198 28.62397,57.24795 21.46805,-42.93597 -57.24802,-114.495874 7.15599,-14.31199 -17.88998,-35.77996 -17.17437,-8.58719 z"
             id="path2-1-4-8-9-4-18-2-13"
             sodipodi:nodetypes="ccccccccccccc" /><path
             style="fill:none;fill-opacity:1;stroke:#1d1d1d;stroke-width:0.32143805;stroke-linecap:round;stroke-linejoin:round;stroke-dasharray:none;stroke-opacity:1;paint-order:markers stroke fill"
             d="m 606.18723,400.75301 28.6239,57.24794 -6.44039,12.88078 17.17438,8.58719 17.88998,35.77997 -7.15599,14.31198 28.62397,57.24794 21.46805,-42.93596 -57.24801,-114.49587 7.15599,-14.31199 -17.88998,-35.77996 -17.17438,-8.58719 z"
             id="path2-1-4-8-9-19-2"
             sodipodi:nodetypes="ccccccccccccc" /><path
             style="fill:none;fill-opacity:1;stroke:#1d1d1d;stroke-width:0.32143805;stroke-linecap:round;stroke-linejoin:round;stroke-dasharray:none;stroke-opacity:1;paint-order:markers stroke fill"
             d="m 599.03126,300.56913 28.6239,57.24794 -6.4404,12.88078 17.17439,8.58719 17.88998,35.77997 -7.156,14.31198 28.62397,57.24794 21.46806,-42.93596 -57.24802,-114.49587 7.15599,-14.31199 -17.88998,-35.77996 -17.17438,-8.58719 z"
             id="path2-1-4-8-9-6-9-8"
             sodipodi:nodetypes="ccccccccccccc" /><path
             style="fill:none;fill-opacity:1;stroke:#1d1d1d;stroke-width:0.32143805;stroke-linecap:round;stroke-linejoin:round;stroke-dasharray:none;stroke-opacity:1;paint-order:markers stroke fill"
             d="m 591.87527,200.38524 28.62389,57.24794 -6.44039,12.88078 17.17438,8.58719 17.88998,35.77997 -7.15599,14.31198 28.62397,57.24794 21.46805,-42.93596 -57.24801,-114.49587 7.15599,-14.31199 -17.88998,-35.77996 -17.17438,-8.58719 z"
             id="path2-1-4-8-9-66-3-2"
             sodipodi:nodetypes="ccccccccccccc" /><path
             style="fill:none;fill-opacity:1;stroke:#1d1d1d;stroke-width:0.32143805;stroke-linecap:round;stroke-linejoin:round;stroke-dasharray:none;stroke-opacity:1;paint-order:markers stroke fill"
             d="m 584.71928,100.20136 28.62389,57.24793 -6.44039,12.88078 17.17438,8.58719 17.88998,35.77997 -7.15599,14.31198 28.62397,57.24794 21.46805,-42.93596 -57.24801,-114.49586 7.15599,-14.31199 -17.88998,-35.779966 -17.17438,-8.58719 z"
             id="path2-1-4-8-9-4-6-1"
             sodipodi:nodetypes="ccccccccccccc" /><path
             style="fill:none;fill-opacity:1;stroke:#1d1d1d;stroke-width:0.32143805;stroke-linecap:round;stroke-linejoin:round;stroke-dasharray:none;stroke-opacity:1;paint-order:markers stroke fill"
             d="m 613.34323,500.9369 28.62389,57.24794 -6.44039,12.88079 17.17438,8.58719 17.88999,35.77996 -7.156,14.31198 28.62397,57.24794 21.46805,-42.93595 -57.24801,-114.49588 7.15599,-14.31198 -17.88998,-35.77997 -17.17438,-8.58719 z"
             id="path2-1-4-8-8-7-3-5"
             sodipodi:nodetypes="ccccccccccccc" /><path
             style="fill:none;fill-opacity:1;stroke:#1d1d1d;stroke-width:0.32143805;stroke-linecap:round;stroke-linejoin:round;stroke-dasharray:none;stroke-opacity:1;paint-order:markers stroke fill"
             d="m 577.56327,0.017414 28.6239,57.24794 -6.44039,12.88078 17.17438,8.58719 17.88997,35.779976 -7.15598,14.31198 28.62397,57.24794 21.46805,-42.93596 -57.24802,-114.495876 7.15599,-14.31199 -17.88998,-35.77996 -17.17437,-8.58719 z"
             id="path2-1-4-8-9-4-18-2-6"
             sodipodi:nodetypes="ccccccccccccc" /><path
             style="fill:none;fill-opacity:1;stroke:#1d1d1d;stroke-width:0.32143805;stroke-linecap:round;stroke-linejoin:round;stroke-dasharray:none;stroke-opacity:1;paint-order:markers stroke fill"
             d="m 992.611,314.88086 28.6239,57.24794 -6.4404,12.88079 17.1744,8.58719 17.89,35.77996 -7.156,14.31198 28.6239,57.24794 21.4681,-42.93595 -57.248,-114.49588 7.156,-14.31198 -17.89,-35.77997 -17.1744,-8.58719 z"
             id="path2-1-4-8-8-7-8"
             sodipodi:nodetypes="ccccccccccccc" /><path
             style="fill:none;fill-opacity:1;stroke:#1d1d1d;stroke-width:0.32143805;stroke-linecap:round;stroke-linejoin:round;stroke-dasharray:none;stroke-opacity:1;paint-order:markers stroke fill"
             d="m 999.76699,415.06475 28.62391,57.24794 -6.4404,12.88079 17.1744,8.58719 17.89,35.77996 -7.156,14.31199 28.6239,57.24794 21.4681,-42.93596 -57.248,-114.49588 7.156,-14.31198 -17.89,-35.77996 -17.1744,-8.58719 z"
             id="path2-1-4-8-8-7-2-5"
             sodipodi:nodetypes="ccccccccccccc" /><path
             style="fill:none;fill-opacity:1;stroke:#1d1d1d;stroke-width:0.32143805;stroke-linecap:round;stroke-linejoin:round;stroke-dasharray:none;stroke-opacity:1;paint-order:markers stroke fill"
             d="m 878.11511,543.87266 28.6239,57.24794 -6.44039,12.88078 17.17438,8.58719 17.88998,35.77997 -7.15599,14.31198 28.62397,57.24794 21.46805,-42.93596 -57.24801,-114.49587 7.15599,-14.31199 -17.88998,-35.77996 -17.17438,-8.58719 z"
             id="path2-1-4-8-9-19-3"
             sodipodi:nodetypes="ccccccccccccc" /><path
             style="fill:none;fill-opacity:1;stroke:#1d1d1d;stroke-width:0.32143805;stroke-linecap:round;stroke-linejoin:round;stroke-dasharray:none;stroke-opacity:1;paint-order:markers stroke fill"
             d="m 885.27111,644.05655 28.62389,57.24794 -6.44039,12.88079 17.17438,8.58719 17.88999,35.77996 -7.156,14.31198 28.62397,57.24794 21.46805,-42.93595 -57.24801,-114.49588 7.15599,-14.31198 -17.88998,-35.77997 -17.17438,-8.58719 z"
             id="path2-1-4-8-8-7-3-4"
             sodipodi:nodetypes="ccccccccccccc" /><path
             style="fill:none;fill-opacity:1;stroke:#1d1d1d;stroke-width:0.32143805;stroke-linecap:round;stroke-linejoin:round;stroke-dasharray:none;stroke-opacity:1;paint-order:markers stroke fill"
             d="m 942.51899,529.56064 28.6239,57.24794 -6.44039,12.88078 17.17438,8.58719 17.88998,35.77997 -7.15599,14.31198 28.62393,57.24794 21.4681,-42.93596 -57.24802,-114.49587 7.15599,-14.31199 -17.88998,-35.77996 -17.17438,-8.58719 z"
             id="path2-1-4-8-9-3-2"
             sodipodi:nodetypes="ccccccccccccc" /><path
             style="fill:none;fill-opacity:1;stroke:#1d1d1d;stroke-width:0.32143805;stroke-linecap:round;stroke-linejoin:round;stroke-dasharray:none;stroke-opacity:1;paint-order:markers stroke fill"
             d="m 949.67499,629.74453 28.62389,57.24794 -6.44039,12.88079 17.17438,8.58719 17.89003,35.77996 -7.15604,14.31198 28.62394,57.24794 21.4681,-42.93595 -57.24803,-114.49588 7.15599,-14.31198 -17.88998,-35.77997 -17.17438,-8.58719 z"
             id="path2-1-4-8-8-7-1-4"
             sodipodi:nodetypes="ccccccccccccc" /><path
             style="fill:none;fill-opacity:1;stroke:#1d1d1d;stroke-width:0.32143805;stroke-linecap:round;stroke-linejoin:round;stroke-dasharray:none;stroke-opacity:1;paint-order:markers stroke fill"
             d="m 813.71111,558.18469 28.6239,57.24794 -6.44039,12.88078 17.17438,8.58719 17.88998,35.77997 -7.15599,14.31198 28.62397,57.24794 21.46805,-42.93596 -57.24801,-114.49587 7.15599,-14.31199 -17.88998,-35.77996 -17.17438,-8.58719 z"
             id="path2-1-4-8-9-19-4-9"
             sodipodi:nodetypes="ccccccccccccc" /><path
             style="fill:none;fill-opacity:1;stroke:#1d1d1d;stroke-width:0.32143805;stroke-linecap:round;stroke-linejoin:round;stroke-dasharray:none;stroke-opacity:1;paint-order:markers stroke fill"
             d="m 820.86711,658.36858 28.62389,57.24794 -6.44039,12.88079 17.17438,8.58719 17.88999,35.77996 -7.156,14.31198 28.62397,57.24794 21.46805,-42.93595 -57.24801,-114.49588 7.15599,-14.31198 -17.88998,-35.77997 -17.17438,-8.58719 z"
             id="path2-1-4-8-8-7-3-1-1"
             sodipodi:nodetypes="ccccccccccccc" /><path
             style="fill:none;fill-opacity:1;stroke:#1d1d1d;stroke-width:0.32143805;stroke-linecap:round;stroke-linejoin:round;stroke-dasharray:none;stroke-opacity:1;paint-order:markers stroke fill"
             d="m 749.30711,572.49673 28.6239,57.24794 -6.44039,12.88078 17.17438,8.58719 17.88998,35.77997 -7.15599,14.31198 28.62397,57.24794 21.46805,-42.93596 -57.24801,-114.49587 7.15599,-14.31199 -17.88998,-35.77996 -17.17438,-8.58719 z"
             id="path2-1-4-8-9-19-0-3"
             sodipodi:nodetypes="ccccccccccccc" /><path
             style="fill:none;fill-opacity:1;stroke:#1d1d1d;stroke-width:0.32143805;stroke-linecap:round;stroke-linejoin:round;stroke-dasharray:none;stroke-opacity:1;paint-order:markers stroke fill"
             d="m 756.46311,672.68062 28.62389,57.24794 -6.44039,12.88079 17.17438,8.58719 17.88999,35.77996 -7.156,14.31198 28.62397,57.24794 21.46805,-42.93595 -57.24801,-114.49588 7.15599,-14.31198 -17.88998,-35.77997 -17.17438,-8.58719 z"
             id="path2-1-4-8-8-7-3-3-7"
             sodipodi:nodetypes="ccccccccccccc" /><path
             style="fill:none;fill-opacity:1;stroke:#1d1d1d;stroke-width:0.32143805;stroke-linecap:round;stroke-linejoin:round;stroke-dasharray:none;stroke-opacity:1;paint-order:markers stroke fill"
             d="m 684.90323,586.80876 28.6239,57.24794 -6.44039,12.88078 17.17438,8.58719 17.88998,35.77997 -7.15599,14.31198 28.62397,57.24794 21.46805,-42.93596 -57.24801,-114.49587 7.15599,-14.31199 -17.88998,-35.77996 -17.17438,-8.58719 z"
             id="path2-1-4-8-9-19-8-5"
             sodipodi:nodetypes="ccccccccccccc" /><path
             style="fill:none;fill-opacity:1;stroke:#1d1d1d;stroke-width:0.32143805;stroke-linecap:round;stroke-linejoin:round;stroke-dasharray:none;stroke-opacity:1;paint-order:markers stroke fill"
             d="m 692.05923,686.99265 28.62389,57.24794 -6.44039,12.88079 17.17438,8.58719 17.88999,35.77996 -7.156,14.31198 28.62397,57.24794 21.46805,-42.93595 -57.24801,-114.49588 7.15599,-14.31198 -17.88998,-35.77997 -17.17438,-8.58719 z"
             id="path2-1-4-8-8-7-3-0-9"
             sodipodi:nodetypes="ccccccccccccc" /><path
             style="fill:none;fill-opacity:1;stroke:#1d1d1d;stroke-width:0.32143805;stroke-linecap:round;stroke-linejoin:round;stroke-dasharray:none;stroke-opacity:1;paint-order:markers stroke fill"
             d="m 620.49923,601.12079 28.6239,57.24794 -6.44039,12.88078 17.17438,8.58719 17.88998,35.77997 -7.15599,14.31198 28.62397,57.24794 21.46805,-42.93596 -57.24801,-114.49587 7.15599,-14.31199 -17.88998,-35.77996 -17.17438,-8.58719 z"
             id="path2-1-4-8-9-19-2-7"
             sodipodi:nodetypes="ccccccccccccc" /><path
             style="fill:none;fill-opacity:1;stroke:#1d1d1d;stroke-width:0.32143805;stroke-linecap:round;stroke-linejoin:round;stroke-dasharray:none;stroke-opacity:1;paint-order:markers stroke fill"
             d="m 627.65523,701.30468 28.62389,57.24794 -6.44039,12.88079 17.17438,8.58719 17.88999,35.77996 -7.156,14.31198 28.62397,57.24795 21.46805,-42.93596 -57.24801,-114.49588 7.15599,-14.31198 -17.88998,-35.77997 -17.17438,-8.58719 z"
             id="path2-1-4-8-8-7-3-5-3"
             sodipodi:nodetypes="ccccccccccccc" /><path
             style="fill:none;fill-opacity:1;stroke:#1d1d1d;stroke-width:0.32143805;stroke-linecap:round;stroke-linejoin:round;stroke-dasharray:none;stroke-opacity:1;paint-order:markers stroke fill"
             d="m 1006.923,515.24864 28.6239,57.24794 -6.4404,12.88079 17.1744,8.58719 17.89,35.77996 -7.156,14.31198 28.6239,57.24794 21.4681,-42.93595 -57.248,-114.49588 7.156,-14.31198 -17.89,-35.77997 -17.1744,-8.58719 z"
             id="path2-1-4-8-8-7-8-0"
             sodipodi:nodetypes="ccccccccccccc" /><path
             style="fill:none;fill-opacity:1;stroke:#1d1d1d;stroke-width:0.32143805;stroke-linecap:round;stroke-linejoin:round;stroke-dasharray:none;stroke-opacity:1;paint-order:markers stroke fill"
             d="m 1014.079,615.43253 28.6239,57.24794 -6.4404,12.88079 17.1744,8.58719 17.89,35.77996 -7.156,14.31199 28.6239,57.24794 21.4681,-42.93596 -57.248,-114.49588 7.156,-14.31198 -17.89,-35.77996 -17.1744,-8.58719 z"
             id="path2-1-4-8-8-7-2-5-2"
             sodipodi:nodetypes="ccccccccccccc" /><path
             style="fill:none;fill-opacity:1;stroke:#1d1d1d;stroke-width:0.32143805;stroke-linecap:round;stroke-linejoin:round;stroke-dasharray:none;stroke-opacity:1;paint-order:markers stroke fill"
             d="m 892.42696,744.24046 28.62393,57.24794 -6.44042,12.88078 17.17442,8.58719 17.8899,35.77997 -7.1559,14.31198 28.6239,57.24798 21.4681,-42.936 -57.248,-114.49587 7.156,-14.31199 -17.89,-35.77996 -17.17441,-8.58719 z"
             id="path2-1-4-8-9-19-08"
             sodipodi:nodetypes="ccccccccccccc" /><path
             style="fill:none;fill-opacity:1;stroke:#1d1d1d;stroke-width:0.32143805;stroke-linecap:round;stroke-linejoin:round;stroke-dasharray:none;stroke-opacity:1;paint-order:markers stroke fill"
             d="m 899.58296,844.42435 28.62393,57.24795 -6.4404,12.8808 17.1744,8.5872 17.8899,35.7799 -7.156,14.312 28.624,57.2479 21.4681,-42.9359 -57.248,-114.49588 7.1559,-14.31198 -17.8899,-35.77997 -17.17442,-8.58719 z"
             id="path2-1-4-8-8-7-3-12"
             sodipodi:nodetypes="ccccccccccccc" /><path
             style="fill:none;fill-opacity:1;stroke:#1d1d1d;stroke-width:0.32143805;stroke-linecap:round;stroke-linejoin:round;stroke-dasharray:none;stroke-opacity:1;paint-order:markers stroke fill"
             d="m 956.83089,729.92844 28.6239,57.24794 -6.4404,12.88078 17.1743,8.58719 17.89001,35.77997 -7.156,14.31198 28.624,57.2479 21.4681,-42.93592 -57.24811,-114.49587 7.15601,-14.31199 -17.88991,-35.77996 -17.1744,-8.58719 z"
             id="path2-1-4-8-9-3-21"
             sodipodi:nodetypes="ccccccccccccc" /><path
             style="fill:none;fill-opacity:1;stroke:#1d1d1d;stroke-width:0.32143805;stroke-linecap:round;stroke-linejoin:round;stroke-dasharray:none;stroke-opacity:1;paint-order:markers stroke fill"
             d="m 963.98689,830.11233 28.6238,57.24797 -6.4404,12.8808 17.17441,8.5871 17.89,35.78 -7.156,14.312 28.624,57.2479 21.4681,-42.9359 -57.2481,-114.4959 7.156,-14.31198 -17.89001,-35.77997 -17.1743,-8.58719 z"
             id="path2-1-4-8-8-7-1-6"
             sodipodi:nodetypes="ccccccccccccc" /><path
             style="fill:none;fill-opacity:1;stroke:#1d1d1d;stroke-width:0.32143805;stroke-linecap:round;stroke-linejoin:round;stroke-dasharray:none;stroke-opacity:1;paint-order:markers stroke fill"
             d="m 828.02296,758.55249 28.6239,57.24794 -6.44039,12.88078 17.17438,8.58719 17.88998,35.77997 -7.15599,14.31193 28.62397,57.248 21.46808,-42.936 -57.24804,-114.49584 7.15599,-14.31199 -17.88998,-35.77996 -17.17438,-8.58719 z"
             id="path2-1-4-8-9-19-4-7"
             sodipodi:nodetypes="ccccccccccccc" /><path
             style="fill:none;fill-opacity:1;stroke:#1d1d1d;stroke-width:0.32143805;stroke-linecap:round;stroke-linejoin:round;stroke-dasharray:none;stroke-opacity:1;paint-order:markers stroke fill"
             d="m 835.17896,858.73638 28.62389,57.24792 -6.44039,12.8808 17.17438,8.5872 17.88999,35.78 -7.156,14.3119 28.62397,57.248 21.46809,-42.936 -57.24805,-114.4959 7.15599,-14.31193 -17.88998,-35.77997 -17.17438,-8.58719 z"
             id="path2-1-4-8-8-7-3-1-0"
             sodipodi:nodetypes="ccccccccccccc" /><path
             style="fill:none;fill-opacity:1;stroke:#1d1d1d;stroke-width:0.32143805;stroke-linecap:round;stroke-linejoin:round;stroke-dasharray:none;stroke-opacity:1;paint-order:markers stroke fill"
             d="m 763.61896,772.86453 28.6239,57.24794 -6.44039,12.88078 17.17438,8.58719 17.88998,35.77996 -7.15599,14.312 28.62397,57.2479 21.46805,-42.9359 -57.24801,-114.4959 7.15599,-14.31199 -17.88998,-35.77996 -17.17438,-8.58719 z"
             id="path2-1-4-8-9-19-0-5"
             sodipodi:nodetypes="ccccccccccccc" /><path
             style="fill:none;fill-opacity:1;stroke:#1d1d1d;stroke-width:0.32143805;stroke-linecap:round;stroke-linejoin:round;stroke-dasharray:none;stroke-opacity:1;paint-order:markers stroke fill"
             d="m 770.77496,873.04842 28.62389,57.24798 -6.44039,12.8808 17.17438,8.5871 17.88999,35.78 -7.156,14.312 28.62397,57.2479 21.46805,-42.9359 -57.24801,-114.4959 7.15599,-14.312 -17.88998,-35.77996 -17.17438,-8.58719 z"
             id="path2-1-4-8-8-7-3-3-3"
             sodipodi:nodetypes="ccccccccccccc" /><path
             style="fill:none;fill-opacity:1;stroke:#1d1d1d;stroke-width:0.32143805;stroke-linecap:round;stroke-linejoin:round;stroke-dasharray:none;stroke-opacity:1;paint-order:markers stroke fill"
             d="m 699.21508,787.17656 28.6239,57.24794 -6.44039,12.88078 17.17438,8.58719 17.88998,35.77993 -7.15599,14.312 28.62397,57.248 21.46805,-42.936 -57.24801,-114.49587 7.15599,-14.31199 -17.88998,-35.77996 -17.17438,-8.58719 z"
             id="path2-1-4-8-9-19-8-7"
             sodipodi:nodetypes="ccccccccccccc" /><path
             style="fill:none;fill-opacity:1;stroke:#1d1d1d;stroke-width:0.32143805;stroke-linecap:round;stroke-linejoin:round;stroke-dasharray:none;stroke-opacity:1;paint-order:markers stroke fill"
             d="m 706.37108,887.3604 28.62389,57.248 -6.44039,12.8808 17.17438,8.5872 17.88999,35.7799 -7.156,14.312 28.62397,57.248 21.46805,-42.936 -57.24801,-114.4959 7.15599,-14.312 -17.88998,-35.77993 -17.17438,-8.58719 z"
             id="path2-1-4-8-8-7-3-0-6"
             sodipodi:nodetypes="ccccccccccccc" /><path
             style="fill:none;fill-opacity:1;stroke:#1d1d1d;stroke-width:0.32143805;stroke-linecap:round;stroke-linejoin:round;stroke-dasharray:none;stroke-opacity:1;paint-order:markers stroke fill"
             d="m 634.81108,801.48859 28.6239,57.24794 -6.44039,12.88078 17.17438,8.58719 17.88998,35.78 -7.15599,14.312 28.62397,57.2479 21.46805,-42.936 -57.24801,-114.49584 7.15599,-14.31199 -17.88998,-35.77996 -17.17438,-8.58719 z"
             id="path2-1-4-8-9-19-2-6"
             sodipodi:nodetypes="ccccccccccccc" /><path
             style="fill:none;fill-opacity:1;stroke:#1d1d1d;stroke-width:0.32143805;stroke-linecap:round;stroke-linejoin:round;stroke-dasharray:none;stroke-opacity:1;paint-order:markers stroke fill"
             d="m 641.96708,901.6725 28.62389,57.2479 -6.44039,12.8808 17.17438,8.5872 17.88999,35.78 -7.156,14.3119 28.62397,57.248 21.46805,-42.936 -57.24801,-114.4959 7.15599,-14.3119 -17.88998,-35.78 -17.17438,-8.58719 z"
             id="path2-1-4-8-8-7-3-5-2"
             sodipodi:nodetypes="ccccccccccccc" /><path
             style="fill:none;fill-opacity:1;stroke:#1d1d1d;stroke-width:0.32143805;stroke-linecap:round;stroke-linejoin:round;stroke-dasharray:none;stroke-opacity:1;paint-order:markers stroke fill"
             d="m 541.78323,415.06504 28.6239,57.24794 -6.44039,12.88078 17.17438,8.58719 17.88998,35.77997 -7.15599,14.31198 28.62397,57.24794 21.46805,-42.93596 -57.24801,-114.49587 7.15599,-14.31199 -17.88998,-35.77996 -17.17438,-8.58719 z"
             id="path2-1-4-8-9-19-2-2"
             sodipodi:nodetypes="ccccccccccccc" /><path
             style="fill:none;fill-opacity:1;stroke:#1d1d1d;stroke-width:0.32143805;stroke-linecap:round;stroke-linejoin:round;stroke-dasharray:none;stroke-opacity:1;paint-order:markers stroke fill"
             d="m 534.62726,314.88116 28.6239,57.24794 -6.4404,12.88078 17.17439,8.58719 17.88998,35.77997 -7.156,14.31198 28.62397,57.24794 21.46806,-42.93596 -57.24802,-114.49587 7.15599,-14.31199 -17.88998,-35.77996 -17.17438,-8.58719 z"
             id="path2-1-4-8-9-6-9-8-9"
             sodipodi:nodetypes="ccccccccccccc" /><path
             style="fill:none;fill-opacity:1;stroke:#1d1d1d;stroke-width:0.32143805;stroke-linecap:round;stroke-linejoin:round;stroke-dasharray:none;stroke-opacity:1;paint-order:markers stroke fill"
             d="m 527.47127,214.69727 28.62389,57.24794 -6.44039,12.88078 17.17438,8.58719 17.88998,35.77997 -7.15599,14.31198 28.62397,57.24794 21.46805,-42.93596 -57.24801,-114.49587 7.15599,-14.31199 -17.88998,-35.77996 -17.17438,-8.58719 z"
             id="path2-1-4-8-9-66-3-2-0"
             sodipodi:nodetypes="ccccccccccccc" /><path
             style="fill:none;fill-opacity:1;stroke:#1d1d1d;stroke-width:0.32143805;stroke-linecap:round;stroke-linejoin:round;stroke-dasharray:none;stroke-opacity:1;paint-order:markers stroke fill"
             d="m 520.31528,114.51339 28.62389,57.24793 -6.44039,12.88078 17.17438,8.58719 17.88998,35.77997 -7.15599,14.31198 28.62397,57.24794 21.46805,-42.93596 -57.24801,-114.49586 7.15599,-14.31199 -17.88998,-35.779972 -17.17438,-8.58719 z"
             id="path2-1-4-8-9-4-6-1-6"
             sodipodi:nodetypes="ccccccccccccc" /><path
             style="fill:none;fill-opacity:1;stroke:#1d1d1d;stroke-width:0.32143805;stroke-linecap:round;stroke-linejoin:round;stroke-dasharray:none;stroke-opacity:1;paint-order:markers stroke fill"
             d="m 548.93923,515.24893 28.62389,57.24794 -6.44039,12.88079 17.17438,8.58719 17.88999,35.77996 -7.156,14.31198 28.62397,57.24794 21.46805,-42.93595 -57.24801,-114.49588 7.15599,-14.31198 -17.88998,-35.77997 -17.17438,-8.58719 z"
             id="path2-1-4-8-8-7-3-5-0"
             sodipodi:nodetypes="ccccccccccccc" /><path
             style="fill:none;fill-opacity:1;stroke:#1d1d1d;stroke-width:0.32143805;stroke-linecap:round;stroke-linejoin:round;stroke-dasharray:none;stroke-opacity:1;paint-order:markers stroke fill"
             d="m 513.15927,14.329438 28.6239,57.24794 -6.44039,12.88078 17.17438,8.58719 17.88997,35.779982 -7.15598,14.31198 28.62397,57.24794 21.46805,-42.93596 -57.24802,-114.495882 7.15599,-14.31199 -17.88998,-35.77996 -17.17437,-8.58719 z"
             id="path2-1-4-8-9-4-18-2-6-3"
             sodipodi:nodetypes="ccccccccccccc" /><path
             style="fill:none;fill-opacity:1;stroke:#1d1d1d;stroke-width:0.32143805;stroke-linecap:round;stroke-linejoin:round;stroke-dasharray:none;stroke-opacity:1;paint-order:markers stroke fill"
             d="m 556.09523,615.43282 28.6239,57.24794 -6.44039,12.88078 17.17438,8.58719 17.88998,35.77997 -7.15599,14.31198 28.62397,57.24794 21.46805,-42.93596 -57.24801,-114.49587 7.15599,-14.31199 -17.88998,-35.77996 -17.17438,-8.58719 z"
             id="path2-1-4-8-9-19-2-7-6"
             sodipodi:nodetypes="ccccccccccccc" /><path
             style="fill:none;fill-opacity:1;stroke:#1d1d1d;stroke-width:0.32143805;stroke-linecap:round;stroke-linejoin:round;stroke-dasharray:none;stroke-opacity:1;paint-order:markers stroke fill"
             d="m 563.25123,715.61671 28.62389,57.24794 -6.44039,12.88079 17.17438,8.58719 17.88999,35.77996 -7.156,14.31198 28.62397,57.24795 21.46805,-42.93596 -57.24801,-114.49588 7.15599,-14.31198 -17.88998,-35.77997 -17.17438,-8.58719 z"
             id="path2-1-4-8-8-7-3-5-3-9"
             sodipodi:nodetypes="ccccccccccccc" /><path
             style="fill:none;fill-opacity:1;stroke:#1d1d1d;stroke-width:0.32143805;stroke-linecap:round;stroke-linejoin:round;stroke-dasharray:none;stroke-opacity:1;paint-order:markers stroke fill"
             d="m 570.40708,815.80062 28.6239,57.24794 -6.44039,12.88078 17.17438,8.58719 17.88998,35.78 -7.15599,14.312 28.62397,57.24787 21.46805,-42.93597 -57.24801,-114.49584 7.15599,-14.31199 -17.88998,-35.77996 -17.17438,-8.58719 z"
             id="path2-1-4-8-9-19-2-6-9"
             sodipodi:nodetypes="ccccccccccccc" /><path
             style="fill:none;fill-opacity:1;stroke:#1d1d1d;stroke-width:0.32143805;stroke-linecap:round;stroke-linejoin:round;stroke-dasharray:none;stroke-opacity:1;paint-order:markers stroke fill"
             d="m 577.56308,915.98453 28.62389,57.2479 -6.44039,12.8808 17.17438,8.5872 17.88999,35.78007 -7.156,14.3119 28.62397,57.248 21.46805,-42.936 -57.24801,-114.49597 7.15599,-14.3119 -17.88998,-35.78 -17.17438,-8.58719 z"
             id="path2-1-4-8-8-7-3-5-2-7"
             sodipodi:nodetypes="ccccccccccccc" /><path
             style="fill:none;fill-opacity:1;stroke:#1d1d1d;stroke-width:0.32143805;stroke-linecap:round;stroke-linejoin:round;stroke-dasharray:none;stroke-opacity:1;paint-order:markers stroke fill"
             d="m 1021.2349,715.61644 28.6239,57.24794 -6.4404,12.88079 17.1744,8.58719 17.89,35.77996 -7.156,14.31198 28.6239,57.2479 21.4681,-42.93591 -57.248,-114.49588 7.156,-14.31198 -17.89,-35.77997 -17.1744,-8.58719 z"
             id="path2-1-4-8-8-7-8-7"
             sodipodi:nodetypes="ccccccccccccc" /><path
             style="fill:none;fill-opacity:1;stroke:#1d1d1d;stroke-width:0.32143805;stroke-linecap:round;stroke-linejoin:round;stroke-dasharray:none;stroke-opacity:1;paint-order:markers stroke fill"
             d="m 1028.3909,815.80033 28.6239,57.24794 -6.4404,12.88083 17.1744,8.5871 17.89,35.78 -7.156,14.312 28.6239,57.2479 21.4681,-42.9359 -57.248,-114.4959 7.156,-14.31198 -17.89,-35.77996 -17.1744,-8.58719 z"
             id="path2-1-4-8-8-7-2-5-9"
             sodipodi:nodetypes="ccccccccccccc" /></g></g></g></g></svg>
