<?xml version="1.0" encoding="UTF-8" standalone="no"?>
<!-- Uploaded to: SVG Repo, www.svgrepo.com, Generator: SVG Repo Mixer Tools -->

<svg
   width="800px"
   height="800px"
   viewBox="0 0 64 64"
   version="1.1"
   id="svg1"
   sodipodi:docname="taladro.svg"
   inkscape:version="1.3 (0e150ed6c4, 2023-07-21)"
   xmlns:inkscape="http://www.inkscape.org/namespaces/inkscape"
   xmlns:sodipodi="http://sodipodi.sourceforge.net/DTD/sodipodi-0.dtd"
   xmlns="http://www.w3.org/2000/svg"
   xmlns:svg="http://www.w3.org/2000/svg">
  <sodipodi:namedview
     id="namedview1"
     pagecolor="#ffffff"
     bordercolor="#000000"
     borderopacity="0.25"
     inkscape:showpageshadow="2"
     inkscape:pageopacity="0.0"
     inkscape:pagecheckerboard="0"
     inkscape:deskcolor="#d1d1d1"
     inkscape:zoom="1.09875"
     inkscape:cx="400.45506"
     inkscape:cy="327.18999"
     inkscape:window-width="1920"
     inkscape:window-height="1057"
     inkscape:window-x="1358"
     inkscape:window-y="815"
     inkscape:window-maximized="1"
     inkscape:current-layer="svg1" />
  <title
     id="title1">con-drill</title>
  <desc
     id="desc1">Created with Sketch.</desc>
  <defs
     id="defs1" />
  <g
     id="64px-Glyph"
     stroke="none"
     stroke-width="1"
     fill="none"
     fill-rule="evenodd"
     transform="translate(2.9852105)"
     style="fill:#ecb67a;fill-opacity:1;stroke:none;stroke-opacity:1">
    <g
       id="con-drill"
       fill="#000000"
       style="fill:#ecb67a;fill-opacity:1;stroke:none;stroke-opacity:1">
      <path
         d="M 53.903299,16 H 48 v -1 c 0,-1.654 -1.346,-3 -3,-3 h -3 v 10 h 3 c 1.654,0 3,-1.346 3,-3 v -1 h 5.903299 c 0.553,0 1,-0.447 1,-1 0,-0.553 -0.447,-1 -1,-1"
         id="Fill-249"
         sodipodi:nodetypes="ccssccsscssc"
         style="fill:#ecb67a;fill-opacity:1;stroke:none;stroke-opacity:1" />
      <path
         d="M 25,44 H 6.198 L 6.023,44.783 C 6.016,44.82 6.025,44.855 6.021,44.893 6.018,44.93 6,44.962 6,45 v 8 c 0,1.654 1.346,3 3,3 h 16 c 1.654,0 3,-1.346 3,-3 v -6 c 0,-1.654 -1.346,-3 -3,-3"
         id="Fill-250"
         style="fill:#ecb67a;fill-opacity:1;stroke:none;stroke-opacity:1" />
      <path
         d="m 21.4238,28 -0.859,4 h 2.435 c 0.404,0 0.77,-0.244 0.924,-0.617 0.154,-0.374 0.069,-0.804 -0.217,-1.09 -0.562,-0.563 -0.51,-1.346 -0.145,-2.293 z"
         id="Fill-251"
         style="fill:#ecb67a;fill-opacity:1;stroke:none;stroke-opacity:1" />
      <path
         d="m 19,14 h -8 c -0.553,0 -1,-0.447 -1,-1 0,-0.553 0.447,-1 1,-1 h 8 c 0.553,0 1,0.447 1,1 0,0.553 -0.447,1 -1,1 m 0,4 h -8 c -0.553,0 -1,-0.447 -1,-1 0,-0.553 0.447,-1 1,-1 h 8 c 0.553,0 1,0.447 1,1 0,0.553 -0.447,1 -1,1 M 35,8 H 9 C 6.243,8 4,10.243 4,13 v 8 c 0,2.757 2.243,5 5,5 h 26 c 2.757,0 5,-2.243 5,-5 V 13 C 40,10.243 37.757,8 35,8"
         id="Fill-252"
         style="fill:#ecb67a;fill-opacity:1;stroke:none;stroke-opacity:1" />
      <path
         d="m 16.75,40.375 c 0,-0.155 0.021,-0.31 0.081,-0.524 L 19.378,28 H 9.309 L 6.197,42 H 18.375 C 17.479,42 16.75,41.272 16.75,40.375"
         id="Fill-253"
         style="fill:#ecb67a;fill-opacity:1;stroke:none;stroke-opacity:1" />
    </g>
  </g>
</svg>
